<svg width="24" height="24" viewBox="0 0 24 24" xmlns="http://www.w3.org/2000/svg">
  <rect width="24" height="24" fill="white"/>
  <path d="M17.5648 1.00458L14.7875 1C11.6674 1 9.65099 3.12509 9.65099 6.41423V9.91055H6.85857C6.61728 9.91055 6.42188 10.1115 6.42188 10.3594V12.9763C6.42188 13.2241 6.6175 13.4249 6.85857 13.4249H9.65099V22.5514C9.65099 22.7993 9.84639 23 10.0877 23H13.731C13.9723 23 14.1677 22.799 14.1677 22.5514V13.4249H17.4327C17.674 13.4249 17.8694 13.2241 17.8694 12.9763L17.8707 10.3594C17.8707 10.2404 17.8246 10.1264 17.7428 10.0421C17.661 9.95786 17.5496 9.91055 17.4338 9.91055H14.1677V7.79439C14.1677 6.77727 14.4036 6.26094 15.6935 6.26094L17.5643 6.26025C17.8054 6.26025 18.0008 6.0593 18.0008 5.81166V2.45317C18.0008 2.20576 17.8056 2.00504 17.5648 2.00458Z" fill="black"/>
</svg>
